<svg width="12" height="10" viewBox="0 0 12 10" fill="none" xmlns="http://www.w3.org/2000/svg">
<path d="M1.15176 3.19201C1.30356 3.29913 1.76114 3.61727 2.52452 4.14627C3.28792 4.67526 3.87273 5.08257 4.27899 5.36823C4.32363 5.39954 4.41845 5.4676 4.56352 5.57252C4.70861 5.6775 4.82917 5.76234 4.9251 5.82705C5.0211 5.89174 5.13715 5.9643 5.27337 6.04464C5.40955 6.1249 5.53792 6.18527 5.65845 6.22524C5.77901 6.26553 5.89061 6.28549 5.99327 6.28549H6H6.00675C6.10941 6.28549 6.22106 6.26551 6.34161 6.22524C6.4621 6.18527 6.59059 6.12483 6.72665 6.04464C6.86278 5.96421 6.97883 5.89171 7.07483 5.82705C7.17083 5.76234 7.29129 5.6775 7.43643 5.57252C7.58147 5.46751 7.67642 5.39954 7.72105 5.36823C8.1317 5.08257 9.17644 4.3571 10.8549 3.19187C11.1808 2.96429 11.4531 2.68969 11.6718 2.36824C11.8907 2.04694 12 1.70987 12 1.35723C12 1.06254 11.8939 0.81029 11.6818 0.600488C11.4698 0.39064 11.2186 0.285774 10.9285 0.285774H1.07138C0.727656 0.285774 0.463135 0.401828 0.277867 0.633935C0.0926223 0.866089 0 1.15627 0 1.50445C0 1.7857 0.122808 2.09047 0.368308 2.41857C0.613784 2.7467 0.875022 3.00454 1.15176 3.19201Z" fill="#8F8F8F"/>
<path d="M11.3303 3.90845C9.86612 4.89943 8.75438 5.66958 7.99555 6.21875C7.74109 6.40618 7.53467 6.55249 7.37614 6.65733C7.21761 6.76224 7.00678 6.86938 6.74333 6.9787C6.47999 7.08819 6.23456 7.14277 6.00684 7.14277H6.00001H5.99328C5.76561 7.14277 5.52004 7.08819 5.25669 6.9787C4.99334 6.86938 4.78237 6.76224 4.62388 6.65733C4.46545 6.55249 4.25895 6.40618 4.00452 6.21875C3.40181 5.77682 2.29245 5.00662 0.676407 3.90845C0.421878 3.73892 0.196432 3.5446 0 3.32588V8.64269C0 8.93752 0.104865 9.18963 0.314714 9.39946C0.524515 9.60935 0.776792 9.71426 1.07145 9.71426H10.9286C11.2232 9.71426 11.4755 9.60935 11.6853 9.39946C11.8952 9.18956 12 8.93754 12 8.64269V3.32588C11.808 3.54007 11.5849 3.73439 11.3303 3.90845Z" fill="#8F8F8F"/>
</svg>
