<?xml version="1.0" encoding="utf-8"?>
<!-- Generator: Adobe Illustrator 23.1.0, SVG Export Plug-In . SVG Version: 6.00 Build 0)  -->
<svg version="1.1" id="Слой_1" xmlns="http://www.w3.org/2000/svg" xmlns:xlink="http://www.w3.org/1999/xlink" x="0px" y="0px"
	 viewBox="0 0 16 16" style="enable-background:new 0 0 16 16;" xml:space="preserve">
<style type="text/css">
	.st0{clip-path:url(#SVGID_2_);}
</style>
<g>
	<defs>
		<rect id="SVGID_1_" width="16" height="16"/>
	</defs>
	<clipPath id="SVGID_2_">
		<use xlink:href="#SVGID_1_"  style="overflow:visible;"/>
	</clipPath>
	<g class="st0">
		<g>
			<path d="M8,8.5c-2.2,0-4-1.8-4-4s1.8-4,4-4c2.2,0,4,1.8,4,4S10.2,8.5,8,8.5z M8,1.5c-1.7,0-3,1.3-3,3s1.3,3,3,3s3-1.3,3-3
				S9.7,1.5,8,1.5z"/>
		</g>
		<g>
			<path d="M15.5,17h-1c0-3.6-2.9-6.5-6.5-6.5S1.5,13.4,1.5,17h-1c0-4.1,3.4-7.5,7.5-7.5S15.5,12.9,15.5,17z"/>
		</g>
	</g>
</g>
</svg>
